<?xml version="1.0" encoding="UTF-8"?>
<svg id="Layer_2" data-name="Layer 2" xmlns="http://www.w3.org/2000/svg" viewBox="0 0 455.65 433.94">
  <defs>
    <style>
      .cls-1 {
        fill: none;
        stroke-width: 4px;
      }

      .cls-1, .cls-2 {
        stroke: #fff;
        stroke-miterlimit: 10;
      }

      .cls-2 {
        fill: #fff200;
        stroke-width: 2px;
      }
    </style>
  </defs>
  <g id="Layer_3" data-name="Layer 3">
    <line class="cls-1" x1="431.32" y1="24.33" x2="351.32" y2="205.63"/>
    <line class="cls-1" x1="24.33" y1="24.33" x2="104.33" y2="205.63"/>
    <line class="cls-1" x1="351.32" y1="205.63" x2="104.33" y2="205.63"/>
    <line class="cls-1" x1="321.32" y1="409.61" x2="351.32" y2="205.63"/>
    <line class="cls-1" x1="134.33" y1="409.61" x2="104.33" y2="205.63"/>
    <line class="cls-1" x1="321.32" y1="409.61" x2="134.33" y2="409.61"/>
    <line class="cls-1" x1="417.39" y1="264.99" x2="227.82" y2="305.06"/>
    <line class="cls-1" x1="38.26" y1="264.99" x2="227.82" y2="305.06"/>
    <line class="cls-1" x1="38.26" y1="264.99" x2="24.33" y2="24.33"/>
    <line class="cls-1" x1="417.39" y1="264.99" x2="431.32" y2="24.33"/>
  </g>
  <g id="Layer_1-2" data-name="Layer 1">
    <polygon class="cls-2" points="125.78 205.63 110.12 211.42 104.33 227.08 98.54 211.42 82.88 205.63 98.54 199.84 104.33 184.18 110.12 199.84 125.78 205.63"/>
    <polygon class="cls-2" points="59.71 264.99 44.05 270.79 38.26 286.44 32.46 270.79 16.81 264.99 32.46 259.2 38.26 243.55 44.05 259.2 59.71 264.99"/>
    <polygon class="cls-2" points="438.84 264.99 423.18 270.79 417.39 286.44 411.6 270.79 395.94 264.99 411.6 259.2 417.39 243.55 423.18 259.2 438.84 264.99"/>
    <polygon class="cls-2" points="372.77 205.63 357.11 211.42 351.32 227.08 345.53 211.42 329.87 205.63 345.53 199.84 351.32 184.18 357.11 199.84 372.77 205.63"/>
    <polygon class="cls-2" points="45.78 24.33 30.12 30.12 24.33 45.78 18.54 30.12 2.88 24.33 18.54 18.54 24.33 2.88 30.12 18.54 45.78 24.33"/>
    <polygon class="cls-2" points="452.77 24.33 437.11 30.12 431.32 45.78 425.53 30.12 409.87 24.33 425.53 18.54 431.32 2.88 437.11 18.54 452.77 24.33"/>
    <polygon class="cls-2" points="155.78 409.61 140.12 415.4 134.33 431.05 128.54 415.4 112.88 409.61 128.54 403.81 134.33 388.16 140.12 403.81 155.78 409.61"/>
    <polygon class="cls-2" points="342.77 409.61 327.11 415.4 321.32 431.05 315.53 415.4 299.87 409.61 315.53 403.81 321.32 388.16 327.11 403.81 342.77 409.61"/>
    <polygon class="cls-2" points="227.82 276.73 233.06 292.85 250.01 292.85 236.3 302.81 241.54 318.93 227.82 308.97 214.11 318.93 219.35 302.81 205.64 292.85 222.59 292.85 227.82 276.73"/>
  </g>
</svg>