<?xml version="1.0" encoding="UTF-8"?>
<svg id="Layer_2" data-name="Layer 2" xmlns="http://www.w3.org/2000/svg" viewBox="0 0 410.46 416.53">
  <defs>
    <style>
      .cls-1 {
        fill: none;
        stroke-width: 4px;
      }

      .cls-1, .cls-2 {
        stroke: #fff;
        stroke-miterlimit: 10;
      }

      .cls-2 {
        fill: #fff200;
        stroke-width: 2px;
      }
    </style>
  </defs>
  <g id="Layer_3" data-name="Layer 3">
    <line class="cls-1" x1="26.38" y1="201.34" x2="388.6" y2="201.66"/>
    <line class="cls-1" x1="202.87" y1="398.86" x2="388.6" y2="201.66"/>
    <line class="cls-1" x1="26.38" y1="201.34" x2="202.87" y2="398.86"/>
    <line class="cls-1" x1="129.92" y1="109.23" x2="129.13" y2="259.99"/>
    <line class="cls-1" x1="269.32" y1="109.73" x2="269.32" y2="259.99"/>
    <line class="cls-1" x1="129.92" y1="109.23" x2="269.32" y2="109.73"/>
    <line class="cls-1" x1="129.13" y1="259.99" x2="269.32" y2="259.99"/>
    <line class="cls-1" x1="203.94" y1="394.39" x2="203.9" y2="24.67"/>
  </g>
  <g id="Layer_1-2" data-name="Layer 1">
    <polygon class="cls-2" points="129.92 130.71 125.1 115.87 109.49 115.87 122.12 106.69 117.3 91.85 129.92 101.02 142.55 91.85 137.73 106.69 150.35 115.87 134.75 115.87 129.92 130.71"/>
    <polygon class="cls-2" points="192.42 42.82 196.28 27.7 183.09 19.36 198.66 18.35 202.52 3.23 208.29 17.73 223.86 16.73 211.85 26.69 217.62 41.2 204.43 32.85 192.42 42.82"/>
    <polygon class="cls-2" points="261.58 129.77 262.43 114.18 247.87 108.57 262.95 104.55 263.79 88.97 272.27 102.07 287.35 98.06 277.51 110.17 285.99 123.28 271.42 117.66 261.58 129.77"/>
    <polygon class="cls-2" points="253.94 274.99 261.2 261.17 250.29 250 265.68 252.63 272.93 238.81 275.19 254.26 290.57 256.88 276.58 263.8 278.84 279.24 267.93 268.08 253.94 274.99"/>
    <polygon class="cls-2" points="117.65 278.14 121.51 263.02 108.31 254.68 123.89 253.67 127.75 238.55 133.51 253.05 149.09 252.05 137.08 262.02 142.85 276.52 129.66 268.18 117.65 278.14"/>
    <polygon class="cls-2" points="223.58 405.73 206.18 402.76 192.59 414.03 195.57 396.63 184.29 383.04 201.69 386.02 215.28 374.74 212.31 392.14 223.58 405.73"/>
    <polygon class="cls-2" points="29.9 221.87 20.31 207.04 2.81 204.67 17.64 195.08 20.01 177.58 29.6 192.41 47.1 194.78 32.27 204.37 29.9 221.87"/>
    <polygon class="cls-2" points="385.83 223.83 379.04 207.53 362.24 202.07 378.54 195.28 384 178.49 390.79 194.79 407.58 200.25 391.28 207.04 385.83 223.83"/>
  </g>
</svg>