<?xml version="1.0" encoding="UTF-8"?>
<svg id="Layer_2" data-name="Layer 2" xmlns="http://www.w3.org/2000/svg" viewBox="0 0 337.52 397.6">
  <defs>
    <style>
      .cls-1 {
        fill: none;
        stroke-width: 4px;
      }

      .cls-1, .cls-2 {
        stroke: #fff;
        stroke-miterlimit: 10;
      }

      .cls-2 {
        fill: #fff200;
        stroke-width: 2px;
      }
    </style>
  </defs>
  <g id="Layer_3" data-name="Layer 3">
    <line class="cls-1" x1="223.34" y1="168.94" x2="313.19" y2="24.33"/>
    <line class="cls-1" x1="117.62" y1="168.94" x2="24.33" y2="24.33"/>
  </g>
  <g id="Layer_1-2" data-name="Layer 1">
    <line class="cls-1" x1="24.33" y1="373.27" x2="170.48" y2="373.27"/>
    <line class="cls-1" x1="316.62" y1="373.27" x2="170.48" y2="373.27"/>
    <line class="cls-1" x1="170.48" y1="86.42" x2="170.48" y2="373.27"/>
    <polygon class="cls-2" points="150.73 97.82 161.77 86.42 150.73 75.02 166.12 78.88 170.48 63.61 174.83 78.88 190.23 75.02 179.19 86.42 190.23 97.82 174.83 93.96 170.48 109.23 166.12 93.96 150.73 97.82"/>
    <polygon class="cls-2" points="9.16 358.11 24.33 365.08 39.5 358.11 32.52 373.27 39.5 388.44 24.33 381.47 9.16 388.44 16.14 373.27 9.16 358.11"/>
    <polygon class="cls-2" points="170.48 351.82 176.27 367.48 191.93 373.27 176.27 379.07 170.48 394.72 164.68 379.07 149.03 373.27 164.68 367.48 170.48 351.82"/>
    <polygon class="cls-2" points="223.34 147.49 229.13 163.14 244.79 168.94 229.13 174.73 223.34 190.39 217.55 174.73 201.89 168.94 217.55 163.14 223.34 147.49"/>
    <polygon class="cls-2" points="313.19 2.88 318.98 18.54 334.63 24.33 318.98 30.12 313.19 45.78 307.39 30.12 291.74 24.33 307.39 18.54 313.19 2.88"/>
    <polygon class="cls-2" points="117.62 147.49 123.41 163.14 139.06 168.94 123.41 174.73 117.62 190.39 111.82 174.73 96.17 168.94 111.82 163.14 117.62 147.49"/>
    <polygon class="cls-2" points="24.33 2.88 30.12 18.54 45.78 24.33 30.12 30.12 24.33 45.78 18.54 30.12 2.88 24.33 18.54 18.54 24.33 2.88"/>
    <polygon class="cls-2" points="331.79 358.11 324.82 373.27 331.79 388.44 316.62 381.47 301.46 388.44 308.43 373.27 301.46 358.11 316.62 365.08 331.79 358.11"/>
  </g>
</svg>