<?xml version="1.0" encoding="UTF-8"?>
<svg id="Layer_2" data-name="Layer 2" xmlns="http://www.w3.org/2000/svg" viewBox="0 0 317.18 373.33">
  <defs>
    <style>
      .cls-1 {
        fill: none;
        stroke-width: 4px;
      }

      .cls-1, .cls-2 {
        stroke: #fff;
        stroke-miterlimit: 10;
      }

      .cls-2 {
        fill: #fff200;
        stroke-width: 2px;
      }
    </style>
  </defs>
  <g id="Layer_3" data-name="Layer 3">
    <line class="cls-1" x1="24.95" y1="348.38" x2="96.47" y2="186.67"/>
    <line class="cls-1" x1="96.47" y1="24.95" x2="96.47" y2="186.67"/>
    <line class="cls-1" x1="292.22" y1="22.27" x2="292.22" y2="186.67"/>
    <line class="cls-1" x1="292.22" y1="348.38" x2="292.22" y2="186.67"/>
    <line class="cls-1" x1="96.47" y1="24.95" x2="292.22" y2="24.95"/>
  </g>
  <g id="Layer_1-2" data-name="Layer 1">
    <polygon class="cls-2" points="297.17 47.1 287.58 32.27 270.08 29.9 284.91 20.31 287.28 2.81 296.87 17.64 314.36 20.01 299.54 29.6 297.17 47.1"/>
    <polygon class="cls-2" points="297.17 208.81 287.58 193.98 270.08 191.61 284.91 182.02 287.28 164.52 296.87 179.35 314.36 181.72 299.54 191.31 297.17 208.81"/>
    <polygon class="cls-2" points="297.17 370.52 287.58 355.69 270.08 353.32 284.91 343.73 287.28 326.24 296.87 341.06 314.36 343.43 299.54 353.02 297.17 370.52"/>
    <polygon class="cls-2" points="101.42 47.1 91.83 32.27 74.33 29.9 89.16 20.31 91.53 2.81 101.12 17.64 118.62 20.01 103.79 29.6 101.42 47.1"/>
    <polygon class="cls-2" points="101.42 208.81 91.83 193.98 74.33 191.61 89.16 182.02 91.53 164.52 101.12 179.35 118.62 181.72 103.79 191.31 101.42 208.81"/>
    <polygon class="cls-2" points="29.9 370.52 20.31 355.69 2.81 353.32 17.64 343.73 20.01 326.24 29.6 341.06 47.1 343.43 32.27 353.02 29.9 370.52"/>
  </g>
</svg>